<svg id="Duo" xmlns="http://www.w3.org/2000/svg" viewBox="0 0 250 190.3"><defs><style>.cls-1{fill:#f49000;}.cls-2{fill:#58cc02;}.cls-3{fill:#89e219;}.cls-4{fill:#fff;}.cls-5{fill:#122431;}.cls-6{fill:#b66e28;}.cls-7{fill:#ffc200;}.cls-8{fill:#ffde00;}</style></defs><title>Duo_Spread_Owl</title><g id="feet"><path id="left_foot" data-name="left foot" class="cls-1" d="M39.45,163.21h0a9.7,9.7,0,0,1,13.81-.44L64.6,173.38a9.77,9.77,0,0,1-13.38,14.25L39.89,177a9.83,9.83,0,0,1-.44-13.81" transform="translate(0)"/><path id="right_foot" data-name="right foot" class="cls-1" d="M210.55,163.21a9.83,9.83,0,0,1-.44,13.81l-11.33,10.61a9.77,9.77,0,0,1-13.38-14.25l11.34-10.61a9.7,9.7,0,0,1,13.81.44h0" transform="translate(0)"/></g><g id="wings"><path id="left_wing" data-name="left wing" class="cls-2" d="M11.21,48.54,121.67,76a8.91,8.91,0,0,1,5.38,13.52c-15.56,24.85-45.78,37.06-75,29.79A68.48,68.48,0,0,1,0,57.84a9,9,0,0,1,11.19-9.3" transform="translate(0)"/><path id="right_wing" data-name="right wing" class="cls-2" d="M238.79,48.54A9,9,0,0,1,250,57.84a68.48,68.48,0,0,1-52,61.48c-29.22,7.27-59.44-4.94-75-29.79A8.91,8.91,0,0,1,128.33,76L238.79,48.54" transform="translate(0)"/></g><path id="torso" class="cls-2" d="M175,0a29.64,29.64,0,0,0-10,2c-19.48,8.31-32.45,12.38-39.92,12.5h0c-7.47-.12-20.44-4.19-39.92-12.5A29.64,29.64,0,0,0,75,0,25.61,25.61,0,0,0,49.47,25.58v78.91A75.91,75.91,0,0,0,125,180.35h0a75.91,75.91,0,0,0,75.52-75.86V25.58A25.61,25.61,0,0,0,175,0Z" transform="translate(0)"/><path id="belly" class="cls-3" d="M151.19,126.73h-19a1.5,1.5,0,0,0-1.45,1.89A11.3,11.3,0,0,0,141.6,136c5.09,0,9.59-3.05,11.05-7.41A1.46,1.46,0,0,0,151.19,126.73Zm-31.83,1.89a1.45,1.45,0,0,0-1.45-1.89h-19a1.38,1.38,0,0,0-1.45,1.89,11.3,11.3,0,0,0,10.9,7.41C113.4,136,117.91,133,119.36,128.62Zm15.16,14.24h-19a1.45,1.45,0,0,0-1.45,1.89,11.3,11.3,0,0,0,10.9,7.41c5.08,0,9.59-3,11-7.41A1.45,1.45,0,0,0,134.52,142.86Z" transform="translate(0)"/><g id="face"><g id="mask"><path class="cls-3" d="M91.83,15.55,114.64,40.4a2.72,2.72,0,0,1-.87,4.22A20.32,20.32,0,0,1,88.05,16c1-1.6,2.61-1.75,3.78-.44" transform="translate(0)"/><path class="cls-3" d="M80.49,21.51l22.38,24.85a2.72,2.72,0,0,1-.87,4.22A20.32,20.32,0,0,1,76.28,22a2.58,2.58,0,0,1,4.21-.44" transform="translate(0)"/><path class="cls-3" d="M87.41,26.89h2.18a28.28,28.28,0,0,1,28.34,28.34V73.54a28.28,28.28,0,0,1-28.34,28.34H87.41A28.29,28.29,0,0,1,59.07,73.54V55.23A28.37,28.37,0,0,1,87.41,26.89" transform="translate(0)"/><path class="cls-3" d="M158.17,15.55c1.17-1.31,2.77-1.16,3.78.44a20.32,20.32,0,0,1-25.72,28.63,2.72,2.72,0,0,1-.87-4.22l22.81-24.85" transform="translate(0)"/><path class="cls-3" d="M169.51,21.51a2.58,2.58,0,0,1,4.21.44A20.32,20.32,0,0,1,148,50.58a2.72,2.72,0,0,1-.87-4.22l22.38-24.85" transform="translate(0)"/><path class="cls-3" d="M162.59,26.89a28.37,28.37,0,0,1,28.34,28.34V73.54a28.29,28.29,0,0,1-28.34,28.34h-2.18a28.28,28.28,0,0,1-28.34-28.34V55.23a28.28,28.28,0,0,1,28.34-28.34h2.18" transform="translate(0)"/><path class="cls-3" d="M139.62,35.75a20.07,20.07,0,0,1-29.24,0c-.15,18.17-.15,34.45,0,48.69L125,84.35l14.62.09C139.77,70.2,139.77,53.92,139.62,35.75Z" transform="translate(0)"/></g><g id="left_eye" data-name="left eye"><path id="eye_ball" data-name="eye ball" class="cls-4" d="M87.72,37.5h0A20.78,20.78,0,0,1,108.5,58.28v12.5a20.79,20.79,0,0,1-41.57,0V58.28A20.7,20.7,0,0,1,87.72,37.5" transform="translate(0)"/><path id="pupil" class="cls-5" d="M90.62,49.41h0a9.9,9.9,0,0,1,9.88,9.89V70.05a9.89,9.89,0,0,1-19.77,0V59.3a10,10,0,0,1,9.89-9.89" transform="translate(0)"/><path id="glare" class="cls-4" d="M82.38,48.83a6.25,6.25,0,1,1-6.25,6.25,6.2,6.2,0,0,1,6.25-6.25" transform="translate(0)"/></g><g id="right_eye" data-name="right eye"><path id="eye_ball-2" data-name="eye ball" class="cls-4" d="M162.28,37.5h0a20.78,20.78,0,0,1,20.79,20.78v12.5a20.79,20.79,0,0,1-41.57,0V58.28A20.69,20.69,0,0,1,162.28,37.5" transform="translate(0)"/><path id="pupil-2" data-name="pupil" class="cls-5" d="M159.38,49.41h0a9.9,9.9,0,0,1,9.89,9.89V70.05a9.89,9.89,0,0,1-19.77,0V59.3a10,10,0,0,1,9.88-9.89" transform="translate(0)"/><path id="glare-2" data-name="glare" class="cls-4" d="M149.94,48.83a6.25,6.25,0,1,1-6.25,6.25,6.21,6.21,0,0,1,6.25-6.25" transform="translate(0)"/></g><path id="eye_puffs" data-name="eye puffs" class="cls-3" d="M142.2,81.1c15.55-6.69,29.94-11.34,42.44-13.67,0,0,2.54,21.73-13.94,26.83C149.65,100.78,142.2,81.1,142.2,81.1ZM79.37,94.26C62.9,89.16,65.43,67.43,65.43,67.43c12.5,2.33,26.89,7,42.44,13.67C107.87,81.1,100.42,100.78,79.37,94.26Z" transform="translate(0)"/><g id="mouth"><g id="lower_beak" data-name="lower beak"><path id="outside" class="cls-1" d="M125,69h0a10.73,10.73,0,0,1,10.75,10.76V97.66a10.75,10.75,0,1,1-21.5,0V79.79A10.92,10.92,0,0,1,125,69" transform="translate(0)"/><path id="inside" class="cls-6" d="M125,73.25h0a8.28,8.28,0,0,1,8.28,8.28V93.45a8.27,8.27,0,0,1-8.28,8.28,8.37,8.37,0,0,1-8.28-8.28V81.53A8.27,8.27,0,0,1,125,73.25" transform="translate(0)"/></g><g id="upper_beak" data-name="upper beak"><path id="beak" class="cls-7" d="M125,81.55l14.39-2.43a.54.54,0,0,0,.44-.61,15.06,15.06,0,0,0-29.66,0,.54.54,0,0,0,.44.61Z" transform="translate(0)"/><path id="glare-3" data-name="glare" class="cls-8" d="M128.3,72.88a2.08,2.08,0,0,1-.6-.09,9.72,9.72,0,0,0-5.4,0,2.18,2.18,0,0,1-1.21-4.18,14.05,14.05,0,0,1,7.82,0,2.18,2.18,0,0,1-.61,4.27Z" transform="translate(0)"/></g></g></g></svg>